<svg xmlns="http://www.w3.org/2000/svg" xmlns:xlink="http://www.w3.org/1999/xlink" width="500" zoomAndPan="magnify" viewBox="0 0 375 374.999991" height="500" preserveAspectRatio="xMidYMid meet" version="1.0"><defs><g/><clipPath id="5bddf128c0"><path d="M 20.265625 16.648438 L 359 16.648438 L 359 355 L 20.265625 355 Z M 20.265625 16.648438 " clip-rule="nonzero"/></clipPath><clipPath id="349d75371f"><path d="M 20.265625 16.648438 L 281.058594 16.648438 C 323.695312 16.648438 358.351562 51.304688 358.351562 93.941406 L 358.351562 354.734375 L 20.265625 354.734375 Z M 20.265625 16.648438 " clip-rule="nonzero"/></clipPath></defs><g clip-path="url(#5bddf128c0)"><g clip-path="url(#349d75371f)"><path fill="#0a2740" d="M 20.265625 16.648438 L 359.007812 16.648438 L 359.007812 355.386719 L 20.265625 355.386719 Z M 20.265625 16.648438 " fill-opacity="1" fill-rule="nonzero"/></g></g><g fill="#ffffff" fill-opacity="1"><g transform="translate(102.61617, 275.937602)"><g><path d="M 138.679688 -211.035156 L 63.007812 -211.035156 C 60.597656 -211.035156 58.789062 -209.226562 58.789062 -206.8125 C 58.789062 -204.402344 60.597656 -202.59375 63.007812 -202.59375 L 77.480469 -202.59375 L 77.480469 -6.632812 C 72.957031 -5.125 67.832031 -4.523438 62.707031 -4.523438 C 34.972656 -4.523438 12.058594 -25.925781 9.949219 -53.363281 C 9.648438 -55.773438 7.839844 -57.582031 5.425781 -57.582031 L 5.125 -57.582031 C 3.015625 -57.582031 0.90625 -55.773438 0.90625 -53.363281 L 0.90625 -52.757812 C 3.316406 -20.5 29.847656 4.523438 62.707031 4.523438 C 97.074219 4.523438 124.511719 -23.816406 124.511719 -58.789062 L 124.511719 -202.59375 L 138.679688 -202.59375 C 141.089844 -202.59375 142.898438 -204.402344 142.898438 -206.8125 C 142.898438 -209.226562 141.089844 -211.035156 138.679688 -211.035156 Z M 115.464844 -202.59375 L 115.464844 -58.789062 C 115.464844 -37.683594 103.707031 -19.292969 86.523438 -10.25 L 86.523438 -202.59375 Z M 115.464844 -202.59375 "/></g></g></g><g fill="#ffffff" fill-opacity="1"><g transform="translate(39.158106, 328.84445)"><g><path d="M 10.535156 -27.457031 C 10.535156 -28.625 9.566406 -29.597656 8.394531 -29.597656 C 7.222656 -29.597656 6.253906 -28.625 6.253906 -27.457031 C 6.253906 -26.285156 7.222656 -25.316406 8.394531 -25.316406 C 9.566406 -25.316406 10.535156 -26.285156 10.535156 -27.457031 Z M 10.535156 -21.9375 L 4.011719 -21.9375 L 4.011719 -21.234375 L 6.554688 -21.234375 L 6.554688 3.847656 C 6.554688 5.984375 6.320312 6.855469 5.683594 7.589844 C 5.183594 8.160156 4.582031 8.425781 3.710938 8.425781 C 3.34375 8.425781 3.011719 8.359375 2.742188 8.226562 C 3.914062 7.960938 4.613281 7.089844 4.613281 5.953125 C 4.613281 4.648438 3.644531 3.679688 2.273438 3.679688 C 0.96875 3.679688 0 4.648438 0 5.984375 C 0 7.792969 1.773438 9.128906 4.011719 9.128906 C 8.59375 9.128906 10.535156 5.753906 10.535156 1.371094 Z M 10.535156 -21.9375 "/></g></g></g><g fill="#ffffff" fill-opacity="1"><g transform="translate(52.531534, 328.84445)"><g><path d="M 20.835938 -12.074219 C 20.835938 -15.285156 20.132812 -17.355469 18.292969 -19.363281 C 16.585938 -21.203125 13.980469 -22.238281 11.503906 -22.238281 C 7.457031 -22.238281 3.8125 -19.664062 2.675781 -15.917969 C 2.273438 -14.648438 2.171875 -13.609375 2.171875 -12.171875 L 2.171875 -9.832031 C 2.171875 -6.621094 2.875 -4.546875 4.714844 -2.542969 C 6.421875 -0.703125 9.03125 0.335938 11.503906 0.335938 C 15.550781 0.335938 19.195312 -2.242188 20.332031 -5.984375 C 20.734375 -7.257812 20.835938 -8.292969 20.835938 -9.730469 Z M 16.855469 -8.125 C 16.855469 -4.917969 16.320312 -3.277344 15.285156 -2.105469 C 14.3125 -1.003906 13.074219 -0.367188 11.503906 -0.367188 C 9.796875 -0.367188 8.394531 -1.136719 7.523438 -2.339844 C 6.488281 -3.746094 6.152344 -5.25 6.152344 -8.394531 L 6.152344 -13.777344 C 6.152344 -16.988281 6.6875 -18.628906 7.726562 -19.796875 C 8.695312 -20.902344 9.933594 -21.535156 11.503906 -21.535156 C 13.210938 -21.535156 14.613281 -20.769531 15.484375 -19.5625 C 16.519531 -18.160156 16.855469 -16.65625 16.855469 -13.511719 Z M 16.855469 -8.125 "/></g></g></g><g fill="#ffffff" fill-opacity="1"><g transform="translate(75.533825, 328.84445)"><g><path d="M 18.226562 -8.394531 C 18.226562 -5.25 17.890625 -3.746094 16.855469 -2.339844 C 15.984375 -1.136719 14.582031 -0.367188 12.875 -0.367188 C 11.304688 -0.367188 10.066406 -1.003906 9.097656 -2.105469 C 8.058594 -3.277344 7.523438 -4.917969 7.523438 -8.125 L 7.523438 -17.625 C 8.527344 -20.097656 10.734375 -21.535156 12.910156 -21.535156 C 14.816406 -21.535156 16.152344 -20.5 16.855469 -19.5625 C 18.191406 -17.757812 18.226562 -15.816406 18.226562 -13.308594 Z M 3.542969 -9.730469 C 3.542969 -8.292969 3.644531 -7.257812 4.046875 -5.984375 C 5.183594 -2.242188 8.828125 0.335938 12.875 0.335938 C 15.351562 0.335938 17.957031 -0.703125 19.664062 -2.542969 C 21.503906 -4.546875 22.207031 -6.621094 22.207031 -9.832031 L 22.207031 -12.171875 C 22.207031 -15.082031 21.402344 -17.390625 19.796875 -19.195312 C 18.191406 -21 15.683594 -22.238281 13.074219 -22.238281 C 10.703125 -22.238281 8.5625 -20.902344 7.523438 -19.128906 L 7.523438 -30.765625 L 1.238281 -30.765625 L 1.238281 -30.066406 L 3.542969 -30.066406 Z M 3.542969 -9.730469 "/></g></g></g><g fill="#ffffff" fill-opacity="1"><g transform="translate(100.074053, 328.84445)"><g/></g></g><g fill="#ffffff" fill-opacity="1"><g transform="translate(116.657102, 328.84445)"><g><path d="M 4.246094 -21.9375 L 1.941406 -21.9375 L 1.941406 -21.234375 L 4.246094 -21.234375 L 4.246094 -0.703125 L 1.941406 -0.703125 L 1.941406 0 L 10.769531 0 L 10.769531 -0.703125 L 8.226562 -0.703125 L 8.226562 -21.234375 L 12.003906 -21.234375 L 12.003906 -21.9375 L 8.226562 -21.9375 L 8.226562 -25.785156 C 8.226562 -27.925781 8.460938 -28.792969 9.097656 -29.53125 C 9.597656 -30.097656 10.199219 -30.367188 11.070312 -30.367188 C 11.4375 -30.367188 11.773438 -30.300781 12.039062 -30.164062 C 10.867188 -29.898438 10.167969 -29.027344 10.167969 -27.890625 C 10.167969 -26.585938 11.136719 -25.617188 12.507812 -25.617188 C 13.8125 -25.617188 14.78125 -26.585938 14.78125 -27.925781 C 14.78125 -29.730469 13.007812 -31.066406 10.769531 -31.066406 C 6.1875 -31.066406 4.246094 -27.691406 4.246094 -23.308594 Z M 4.246094 -21.9375 "/></g></g></g><g fill="#ffffff" fill-opacity="1"><g transform="translate(129.763058, 328.84445)"><g><path d="M 20.835938 -12.074219 C 20.835938 -15.285156 20.132812 -17.355469 18.292969 -19.363281 C 16.585938 -21.203125 13.980469 -22.238281 11.503906 -22.238281 C 7.457031 -22.238281 3.8125 -19.664062 2.675781 -15.917969 C 2.273438 -14.648438 2.171875 -13.609375 2.171875 -12.171875 L 2.171875 -9.832031 C 2.171875 -6.621094 2.875 -4.546875 4.714844 -2.542969 C 6.421875 -0.703125 9.03125 0.335938 11.503906 0.335938 C 15.550781 0.335938 19.195312 -2.242188 20.332031 -5.984375 C 20.734375 -7.257812 20.835938 -8.292969 20.835938 -9.730469 Z M 16.855469 -8.125 C 16.855469 -4.917969 16.320312 -3.277344 15.285156 -2.105469 C 14.3125 -1.003906 13.074219 -0.367188 11.503906 -0.367188 C 9.796875 -0.367188 8.394531 -1.136719 7.523438 -2.339844 C 6.488281 -3.746094 6.152344 -5.25 6.152344 -8.394531 L 6.152344 -13.777344 C 6.152344 -16.988281 6.6875 -18.628906 7.726562 -19.796875 C 8.695312 -20.902344 9.933594 -21.535156 11.503906 -21.535156 C 13.210938 -21.535156 14.613281 -20.769531 15.484375 -19.5625 C 16.519531 -18.160156 16.855469 -16.65625 16.855469 -13.511719 Z M 16.855469 -8.125 "/></g></g></g><g fill="#ffffff" fill-opacity="1"><g transform="translate(152.765349, 328.84445)"><g><path d="M 8.125 -21.9375 L 1.839844 -21.9375 L 1.839844 -21.234375 L 4.148438 -21.234375 L 4.148438 -0.703125 L 1.839844 -0.703125 L 1.839844 0 L 10.632812 0 L 10.632812 -0.703125 L 8.125 -0.703125 L 8.125 -18.359375 C 9.164062 -20.234375 10.902344 -21.503906 12.273438 -21.503906 C 12.609375 -21.503906 12.84375 -21.4375 12.910156 -21.402344 C 11.839844 -21.269531 11.035156 -20.300781 11.035156 -19.164062 C 11.035156 -17.824219 12.039062 -16.820312 13.378906 -16.820312 C 14.75 -16.820312 15.75 -17.890625 15.75 -19.296875 C 15.75 -20.96875 14.378906 -22.238281 12.507812 -22.238281 C 10.769531 -22.238281 9.0625 -21.035156 8.125 -19.53125 Z M 8.125 -21.9375 "/></g></g></g><g fill="#ffffff" fill-opacity="1"><g transform="translate(168.512556, 328.84445)"><g/></g></g><g fill="#ffffff" fill-opacity="1"><g transform="translate(185.095605, 328.84445)"><g><path d="M 4.246094 -21.9375 L 1.941406 -21.9375 L 1.941406 -21.234375 L 4.246094 -21.234375 L 4.246094 -0.703125 L 1.941406 -0.703125 L 1.941406 0 L 10.769531 0 L 10.769531 -0.703125 L 8.226562 -0.703125 L 8.226562 -21.234375 L 12.003906 -21.234375 L 12.003906 -21.9375 L 8.226562 -21.9375 L 8.226562 -25.785156 C 8.226562 -27.925781 8.460938 -28.792969 9.097656 -29.53125 C 9.597656 -30.097656 10.199219 -30.367188 11.070312 -30.367188 C 11.4375 -30.367188 11.773438 -30.300781 12.039062 -30.164062 C 10.867188 -29.898438 10.167969 -29.027344 10.167969 -27.890625 C 10.167969 -26.585938 11.136719 -25.617188 12.507812 -25.617188 C 13.8125 -25.617188 14.78125 -26.585938 14.78125 -27.925781 C 14.78125 -29.730469 13.007812 -31.066406 10.769531 -31.066406 C 6.1875 -31.066406 4.246094 -27.691406 4.246094 -23.308594 Z M 4.246094 -21.9375 "/></g></g></g><g fill="#ffffff" fill-opacity="1"><g transform="translate(198.20156, 328.84445)"><g><path d="M 8.125 -21.9375 L 1.839844 -21.9375 L 1.839844 -21.234375 L 4.148438 -21.234375 L 4.148438 -0.703125 L 1.839844 -0.703125 L 1.839844 0 L 10.632812 0 L 10.632812 -0.703125 L 8.125 -0.703125 L 8.125 -18.359375 C 9.164062 -20.234375 10.902344 -21.503906 12.273438 -21.503906 C 12.609375 -21.503906 12.84375 -21.4375 12.910156 -21.402344 C 11.839844 -21.269531 11.035156 -20.300781 11.035156 -19.164062 C 11.035156 -17.824219 12.039062 -16.820312 13.378906 -16.820312 C 14.75 -16.820312 15.75 -17.890625 15.75 -19.296875 C 15.75 -20.96875 14.378906 -22.238281 12.507812 -22.238281 C 10.769531 -22.238281 9.0625 -21.035156 8.125 -19.53125 Z M 8.125 -21.9375 "/></g></g></g><g fill="#ffffff" fill-opacity="1"><g transform="translate(213.948767, 328.84445)"><g><path d="M 20.96875 -10.46875 L 20.96875 -12.003906 C 20.96875 -16.019531 19.898438 -18.058594 17.859375 -19.933594 C 16.253906 -21.402344 13.8125 -22.238281 11.671875 -22.238281 C 6.152344 -22.238281 2.339844 -18.09375 2.339844 -12.40625 L 2.339844 -9.730469 C 2.339844 -6.589844 3.042969 -4.515625 4.78125 -2.609375 C 6.421875 -0.835938 8.894531 0.335938 11.871094 0.335938 C 15.785156 0.335938 18.792969 -1.738281 20.601562 -5.683594 L 19.964844 -5.984375 C 18.058594 -2.105469 15.484375 -0.367188 11.972656 -0.367188 C 9.363281 -0.367188 7.726562 -1.605469 6.957031 -3.542969 C 6.386719 -4.984375 6.320312 -6.824219 6.320312 -9.296875 L 6.320312 -10.46875 Z M 17.023438 -11.167969 L 6.320312 -11.167969 L 6.320312 -13.777344 C 6.320312 -16.988281 6.855469 -18.628906 7.890625 -19.796875 C 8.863281 -20.902344 10.101562 -21.535156 11.671875 -21.535156 C 13.378906 -21.535156 14.78125 -20.769531 15.652344 -19.5625 C 16.6875 -18.160156 17.023438 -16.65625 17.023438 -13.511719 Z M 17.023438 -11.167969 "/></g></g></g><g fill="#ffffff" fill-opacity="1"><g transform="translate(236.58328, 328.84445)"><g><path d="M 14.847656 -17.089844 L 14.847656 -22.441406 L 14.144531 -22.441406 L 14.144531 -19.863281 C 13.34375 -21.371094 11.773438 -22.238281 9.699219 -22.238281 C 6.21875 -22.238281 3.34375 -19.328125 3.34375 -15.71875 C 3.34375 -7.660156 15.050781 -10.601562 15.050781 -4.847656 C 15.050781 -2.308594 12.808594 -0.367188 9.730469 -0.367188 C 6.289062 -0.367188 3.613281 -2.875 3.34375 -6.386719 L 2.640625 -6.386719 L 2.640625 0.335938 L 3.34375 0.335938 L 3.34375 -3.34375 C 4.613281 -1.003906 6.957031 0.335938 9.699219 0.335938 C 13.8125 0.335938 17.054688 -2.808594 17.054688 -6.722656 C 17.054688 -14.914062 5.617188 -11.804688 5.617188 -17.558594 C 5.617188 -19.765625 7.425781 -21.503906 9.832031 -21.503906 C 12.308594 -21.503906 13.980469 -19.832031 14.179688 -17.089844 Z M 14.847656 -17.089844 "/></g></g></g><g fill="#ffffff" fill-opacity="1"><g transform="translate(255.306087, 328.84445)"><g><path d="M 25.382812 0 L 25.382812 -0.703125 L 23.140625 -0.703125 L 23.140625 -12.171875 C 23.140625 -15.082031 22.339844 -17.390625 20.734375 -19.195312 C 19.128906 -21 16.621094 -22.238281 14.011719 -22.238281 C 11.636719 -22.238281 9.496094 -20.902344 8.460938 -19.128906 L 8.460938 -30.765625 L 2.171875 -30.765625 L 2.171875 -30.066406 L 4.480469 -30.066406 L 4.480469 -0.703125 L 2.171875 -0.703125 L 2.171875 0 L 10.703125 0 L 10.703125 -0.703125 L 8.460938 -0.703125 L 8.460938 -17.625 C 9.464844 -20.097656 11.671875 -21.535156 13.84375 -21.535156 C 15.75 -21.535156 17.089844 -20.5 17.792969 -19.5625 C 19.128906 -17.757812 19.164062 -15.816406 19.164062 -13.308594 L 19.164062 0 Z M 25.382812 0 "/></g></g></g><g fill="#ffffff" fill-opacity="1"><g transform="translate(282.35383, 328.84445)"><g><path d="M 20.96875 -10.46875 L 20.96875 -12.003906 C 20.96875 -16.019531 19.898438 -18.058594 17.859375 -19.933594 C 16.253906 -21.402344 13.8125 -22.238281 11.671875 -22.238281 C 6.152344 -22.238281 2.339844 -18.09375 2.339844 -12.40625 L 2.339844 -9.730469 C 2.339844 -6.589844 3.042969 -4.515625 4.78125 -2.609375 C 6.421875 -0.835938 8.894531 0.335938 11.871094 0.335938 C 15.785156 0.335938 18.792969 -1.738281 20.601562 -5.683594 L 19.964844 -5.984375 C 18.058594 -2.105469 15.484375 -0.367188 11.972656 -0.367188 C 9.363281 -0.367188 7.726562 -1.605469 6.957031 -3.542969 C 6.386719 -4.984375 6.320312 -6.824219 6.320312 -9.296875 L 6.320312 -10.46875 Z M 17.023438 -11.167969 L 6.320312 -11.167969 L 6.320312 -13.777344 C 6.320312 -16.988281 6.855469 -18.628906 7.890625 -19.796875 C 8.863281 -20.902344 10.101562 -21.535156 11.671875 -21.535156 C 13.378906 -21.535156 14.78125 -20.769531 15.652344 -19.5625 C 16.6875 -18.160156 17.023438 -16.65625 17.023438 -13.511719 Z M 17.023438 -11.167969 "/></g></g></g><g fill="#ffffff" fill-opacity="1"><g transform="translate(304.988343, 328.84445)"><g><path d="M 8.125 -21.9375 L 1.839844 -21.9375 L 1.839844 -21.234375 L 4.148438 -21.234375 L 4.148438 -0.703125 L 1.839844 -0.703125 L 1.839844 0 L 10.632812 0 L 10.632812 -0.703125 L 8.125 -0.703125 L 8.125 -18.359375 C 9.164062 -20.234375 10.902344 -21.503906 12.273438 -21.503906 C 12.609375 -21.503906 12.84375 -21.4375 12.910156 -21.402344 C 11.839844 -21.269531 11.035156 -20.300781 11.035156 -19.164062 C 11.035156 -17.824219 12.039062 -16.820312 13.378906 -16.820312 C 14.75 -16.820312 15.75 -17.890625 15.75 -19.296875 C 15.75 -20.96875 14.378906 -22.238281 12.507812 -22.238281 C 10.769531 -22.238281 9.0625 -21.035156 8.125 -19.53125 Z M 8.125 -21.9375 "/></g></g></g><g fill="#ffffff" fill-opacity="1"><g transform="translate(320.73555, 328.84445)"><g><path d="M 14.847656 -17.089844 L 14.847656 -22.441406 L 14.144531 -22.441406 L 14.144531 -19.863281 C 13.34375 -21.371094 11.773438 -22.238281 9.699219 -22.238281 C 6.21875 -22.238281 3.34375 -19.328125 3.34375 -15.71875 C 3.34375 -7.660156 15.050781 -10.601562 15.050781 -4.847656 C 15.050781 -2.308594 12.808594 -0.367188 9.730469 -0.367188 C 6.289062 -0.367188 3.613281 -2.875 3.34375 -6.386719 L 2.640625 -6.386719 L 2.640625 0.335938 L 3.34375 0.335938 L 3.34375 -3.34375 C 4.613281 -1.003906 6.957031 0.335938 9.699219 0.335938 C 13.8125 0.335938 17.054688 -2.808594 17.054688 -6.722656 C 17.054688 -14.914062 5.617188 -11.804688 5.617188 -17.558594 C 5.617188 -19.765625 7.425781 -21.503906 9.832031 -21.503906 C 12.308594 -21.503906 13.980469 -19.832031 14.179688 -17.089844 Z M 14.847656 -17.089844 "/></g></g></g><path fill="#ffffff" d="M 218.257812 286.542969 L 236.257812 286.542969 L 236.257812 292.542969 L 218.257812 292.542969 M 242.257812 286.542969 L 260.261719 286.542969 L 260.261719 292.542969 L 242.257812 292.542969 M 266.261719 286.542969 L 284.261719 286.542969 L 284.261719 292.542969 L 266.261719 292.542969 M 290.261719 286.542969 L 308.265625 286.542969 L 308.265625 292.542969 L 290.261719 292.542969 M 314.265625 286.542969 L 332.269531 286.542969 L 332.269531 292.542969 L 314.265625 292.542969 " fill-opacity="1" fill-rule="nonzero"/><path fill="#ffffff" d="M 38.335938 37.5 L 56.375 37.5 L 56.375 43.5 L 38.335938 43.5 M 62.386719 37.5 L 80.425781 37.5 L 80.425781 43.5 L 62.386719 43.5 M 86.4375 37.5 L 104.476562 37.5 L 104.476562 43.5 L 86.4375 43.5 M 110.488281 37.5 L 128.527344 37.5 L 128.527344 43.5 L 110.488281 43.5 M 134.539062 37.5 L 152.574219 37.5 L 152.574219 43.5 L 134.539062 43.5 M 158.589844 37.5 L 162.089844 37.5 L 162.089844 43.5 L 158.589844 43.5 " fill-opacity="1" fill-rule="nonzero"/></svg>