<svg xmlns="http://www.w3.org/2000/svg" xmlns:xlink="http://www.w3.org/1999/xlink" width="500" zoomAndPan="magnify" viewBox="0 0 375 374.999991" height="500" preserveAspectRatio="xMidYMid meet" version="1.0"><defs><g/><clipPath id="73c6a01581"><path d="M 20.265625 16.648438 L 359 16.648438 L 359 355 L 20.265625 355 Z M 20.265625 16.648438 " clip-rule="nonzero"/></clipPath><clipPath id="fcdcf51257"><path d="M 20.265625 16.648438 L 281.058594 16.648438 C 323.695312 16.648438 358.351562 51.304688 358.351562 93.941406 L 358.351562 354.734375 L 20.265625 354.734375 Z M 20.265625 16.648438 " clip-rule="nonzero"/></clipPath></defs><g clip-path="url(#73c6a01581)"><g clip-path="url(#fcdcf51257)"><path fill="#0a2740" d="M 20.265625 16.648438 L 359.007812 16.648438 L 359.007812 355.386719 L 20.265625 355.386719 Z M 20.265625 16.648438 " fill-opacity="1" fill-rule="nonzero"/></g></g><g fill="#ffffff" fill-opacity="1"><g transform="translate(44.080537, 235.124985)"><g><path d="M 84.421875 -34.03125 C 84.421875 -21.78125 80.929688 -12.757812 73.953125 -6.96875 C 66.984375 -1.1875 56.945312 1.703125 43.84375 1.703125 C 30.75 1.703125 20.710938 -1.1875 13.734375 -6.96875 C 6.765625 -12.757812 3.28125 -21.78125 3.28125 -34.03125 L 3.28125 -35.3125 L 32.75 -35.3125 L 32.75 -34.171875 C 32.75 -29.710938 33.578125 -26.53125 35.234375 -24.625 C 36.898438 -22.726562 39.441406 -21.78125 42.859375 -21.78125 C 46.273438 -21.78125 48.8125 -22.726562 50.46875 -24.625 C 52.132812 -26.53125 52.96875 -29.710938 52.96875 -34.171875 L 52.96875 -97.953125 L 84.421875 -97.953125 Z M 84.421875 -34.03125 "/></g></g></g><g fill="#ffffff" fill-opacity="1"><g transform="translate(139.042071, 235.124985)"><g><path d="M 10.53125 -97.953125 L 89.703125 -97.953125 L 89.703125 -74.46875 L 42 -74.46875 L 42 -57.65625 L 83 -57.65625 L 83 -35.171875 L 42 -35.171875 L 42 0 L 10.53125 0 Z M 10.53125 -97.953125 "/></g></g></g><g fill="#ffffff" fill-opacity="1"><g transform="translate(234.003605, 235.124985)"><g><path d="M 10.53125 -97.953125 L 89.703125 -97.953125 L 89.703125 -74.46875 L 42 -74.46875 L 42 -57.65625 L 83 -57.65625 L 83 -35.171875 L 42 -35.171875 L 42 0 L 10.53125 0 Z M 10.53125 -97.953125 "/></g></g></g><g fill="#ffffff" fill-opacity="1"><g transform="translate(35.70607, 302.176644)"><g><path d="M 4.652344 0.523438 C 7.703125 0.523438 9.484375 -1.320312 9.484375 -5.433594 L 9.484375 -24.402344 C 9.484375 -24.839844 9.253906 -25.070312 8.8125 -25.070312 L 6.96875 -25.070312 C 6.527344 -25.070312 6.300781 -24.839844 6.300781 -24.402344 L 6.300781 -5.386719 C 6.300781 -3.085938 5.648438 -2.496094 4.210938 -2.496094 C 3.722656 -2.496094 2.96875 -2.53125 1.796875 -2.90625 C 1.339844 -3.070312 1.027344 -2.921875 0.945312 -2.464844 L 0.585938 -0.832031 C 0.488281 -0.390625 0.652344 -0.128906 1.0625 0 C 2.660156 0.457031 3.722656 0.523438 4.652344 0.523438 Z M 4.652344 0.523438 "/></g></g></g><g fill="#ffffff" fill-opacity="1"><g transform="translate(47.610746, 302.176644)"><g><path d="M 14.460938 0.523438 C 21.722656 0.523438 27.519531 -4.847656 27.519531 -12.535156 C 27.519531 -20.207031 21.722656 -25.59375 14.460938 -25.59375 C 7.199219 -25.59375 1.421875 -20.207031 1.421875 -12.535156 C 1.421875 -4.847656 7.199219 0.523438 14.460938 0.523438 Z M 14.460938 -2.5625 C 9.027344 -2.5625 4.617188 -6.644531 4.617188 -12.535156 C 4.617188 -18.460938 9.007812 -22.507812 14.460938 -22.507812 C 19.894531 -22.507812 24.300781 -18.460938 24.300781 -12.535156 C 24.300781 -6.609375 19.894531 -2.5625 14.460938 -2.5625 Z M 14.460938 -2.5625 "/></g></g></g><g fill="#ffffff" fill-opacity="1"><g transform="translate(76.540739, 302.176644)"><g><path d="M 10.511719 0 C 16.875 0 18.671875 -3.527344 18.671875 -7.199219 C 18.671875 -9.351562 17.59375 -11.832031 15.066406 -12.8125 C 17.121094 -14.117188 17.9375 -16.238281 17.9375 -18.460938 C 17.9375 -22.246094 15.816406 -25.070312 9.921875 -25.070312 L 3.148438 -25.070312 C 2.710938 -25.070312 2.480469 -24.839844 2.480469 -24.402344 L 2.480469 -0.667969 C 2.480469 -0.226562 2.710938 0 3.148438 0 Z M 5.679688 -22.082031 L 9.824219 -22.082031 C 13.921875 -22.082031 14.867188 -20.5 14.867188 -18.246094 C 14.867188 -15.765625 13.953125 -14.152344 10.707031 -14.152344 L 5.679688 -14.152344 Z M 5.679688 -11.410156 L 10.738281 -11.410156 C 14.265625 -11.410156 15.472656 -9.695312 15.472656 -7.34375 C 15.472656 -5.15625 14.804688 -2.988281 10.398438 -2.988281 L 5.679688 -2.988281 Z M 5.679688 -11.410156 "/></g></g></g><g fill="#ffffff" fill-opacity="1"><g transform="translate(96.87655, 302.176644)"><g/></g></g><g fill="#ffffff" fill-opacity="1"><g transform="translate(106.449229, 302.176644)"><g><path d="M 5.011719 0 C 5.433594 0 5.679688 -0.226562 5.679688 -0.667969 L 5.679688 -8.015625 L 14.199219 -8.015625 C 14.640625 -8.015625 14.867188 -8.242188 14.867188 -8.683594 L 14.867188 -10.265625 C 14.867188 -10.707031 14.640625 -10.933594 14.199219 -10.933594 L 5.679688 -10.933594 L 5.679688 -22.082031 L 15.277344 -22.082031 C 15.699219 -22.082031 15.945312 -22.328125 15.945312 -22.753906 L 15.945312 -24.402344 C 15.945312 -24.839844 15.699219 -25.070312 15.277344 -25.070312 L 3.148438 -25.070312 C 2.710938 -25.070312 2.480469 -24.839844 2.480469 -24.402344 L 2.480469 -0.667969 C 2.480469 -0.226562 2.710938 0 3.148438 0 Z M 5.011719 0 "/></g></g></g><g fill="#ffffff" fill-opacity="1"><g transform="translate(123.278853, 302.176644)"><g><path d="M 14.460938 0.523438 C 21.722656 0.523438 27.519531 -4.847656 27.519531 -12.535156 C 27.519531 -20.207031 21.722656 -25.59375 14.460938 -25.59375 C 7.199219 -25.59375 1.421875 -20.207031 1.421875 -12.535156 C 1.421875 -4.847656 7.199219 0.523438 14.460938 0.523438 Z M 14.460938 -2.5625 C 9.027344 -2.5625 4.617188 -6.644531 4.617188 -12.535156 C 4.617188 -18.460938 9.007812 -22.507812 14.460938 -22.507812 C 19.894531 -22.507812 24.300781 -18.460938 24.300781 -12.535156 C 24.300781 -6.609375 19.894531 -2.5625 14.460938 -2.5625 Z M 14.460938 -2.5625 "/></g></g></g><g fill="#ffffff" fill-opacity="1"><g transform="translate(152.208847, 302.176644)"><g><path d="M 15.226562 -8.765625 C 18.132812 -10.039062 19.585938 -12.632812 19.585938 -16.484375 C 19.585938 -22.050781 16.550781 -25.070312 9.761719 -25.070312 L 3.148438 -25.070312 C 2.710938 -25.070312 2.480469 -24.839844 2.480469 -24.402344 L 2.480469 -0.667969 C 2.480469 -0.226562 2.710938 0 3.148438 0 L 4.976562 0 C 5.417969 0 5.648438 -0.226562 5.648438 -0.667969 L 5.648438 -7.835938 L 9.972656 -7.835938 C 10.722656 -7.835938 11.425781 -7.867188 12.09375 -7.949219 L 15.847656 -0.507812 C 16.011719 -0.164062 16.257812 0 16.613281 0 L 18.800781 0 C 19.308594 0 19.535156 -0.328125 19.292969 -0.800781 Z M 5.648438 -10.820312 L 5.648438 -22.082031 L 9.5625 -22.082031 C 11.652344 -22.082031 16.46875 -22.035156 16.46875 -16.46875 C 16.46875 -10.871094 11.589844 -10.820312 9.5625 -10.820312 Z M 5.648438 -10.820312 "/></g></g></g><g fill="#ffffff" fill-opacity="1"><g transform="translate(173.490508, 302.176644)"><g/></g></g><g fill="#ffffff" fill-opacity="1"><g transform="translate(183.063187, 302.176644)"><g><path d="M 5.011719 0 C 5.433594 0 5.679688 -0.226562 5.679688 -0.667969 L 5.679688 -8.015625 L 14.199219 -8.015625 C 14.640625 -8.015625 14.867188 -8.242188 14.867188 -8.683594 L 14.867188 -10.265625 C 14.867188 -10.707031 14.640625 -10.933594 14.199219 -10.933594 L 5.679688 -10.933594 L 5.679688 -22.082031 L 15.277344 -22.082031 C 15.699219 -22.082031 15.945312 -22.328125 15.945312 -22.753906 L 15.945312 -24.402344 C 15.945312 -24.839844 15.699219 -25.070312 15.277344 -25.070312 L 3.148438 -25.070312 C 2.710938 -25.070312 2.480469 -24.839844 2.480469 -24.402344 L 2.480469 -0.667969 C 2.480469 -0.226562 2.710938 0 3.148438 0 Z M 5.011719 0 "/></g></g></g><g fill="#ffffff" fill-opacity="1"><g transform="translate(199.892811, 302.176644)"><g><path d="M 15.226562 -8.765625 C 18.132812 -10.039062 19.585938 -12.632812 19.585938 -16.484375 C 19.585938 -22.050781 16.550781 -25.070312 9.761719 -25.070312 L 3.148438 -25.070312 C 2.710938 -25.070312 2.480469 -24.839844 2.480469 -24.402344 L 2.480469 -0.667969 C 2.480469 -0.226562 2.710938 0 3.148438 0 L 4.976562 0 C 5.417969 0 5.648438 -0.226562 5.648438 -0.667969 L 5.648438 -7.835938 L 9.972656 -7.835938 C 10.722656 -7.835938 11.425781 -7.867188 12.09375 -7.949219 L 15.847656 -0.507812 C 16.011719 -0.164062 16.257812 0 16.613281 0 L 18.800781 0 C 19.308594 0 19.535156 -0.328125 19.292969 -0.800781 Z M 5.648438 -10.820312 L 5.648438 -22.082031 L 9.5625 -22.082031 C 11.652344 -22.082031 16.46875 -22.035156 16.46875 -16.46875 C 16.46875 -10.871094 11.589844 -10.820312 9.5625 -10.820312 Z M 5.648438 -10.820312 "/></g></g></g><g fill="#ffffff" fill-opacity="1"><g transform="translate(221.174473, 302.176644)"><g><path d="M 15.277344 0 C 15.699219 0 15.945312 -0.226562 15.945312 -0.667969 L 15.945312 -2.316406 C 15.945312 -2.742188 15.699219 -2.988281 15.277344 -2.988281 L 5.679688 -2.988281 L 5.679688 -8.015625 L 13.972656 -8.015625 C 14.394531 -8.015625 14.640625 -8.242188 14.640625 -8.683594 L 14.640625 -10.265625 C 14.640625 -10.707031 14.394531 -10.933594 13.972656 -10.933594 L 5.679688 -10.933594 L 5.679688 -22.082031 L 15.277344 -22.082031 C 15.699219 -22.082031 15.945312 -22.328125 15.945312 -22.753906 L 15.945312 -24.402344 C 15.945312 -24.839844 15.699219 -25.070312 15.277344 -25.070312 L 3.148438 -25.070312 C 2.710938 -25.070312 2.480469 -24.839844 2.480469 -24.402344 L 2.480469 -0.667969 C 2.480469 -0.226562 2.710938 0 3.148438 0 Z M 15.277344 0 "/></g></g></g><g fill="#ffffff" fill-opacity="1"><g transform="translate(238.411807, 302.176644)"><g><path d="M 9.5 0.523438 C 13.660156 0.523438 17.152344 -1.664062 17.152344 -6.039062 C 17.152344 -10.265625 13.496094 -12.191406 10.21875 -14.003906 C 7.441406 -15.523438 4.976562 -16.894531 4.976562 -19.519531 C 4.976562 -21.738281 6.871094 -22.636719 9.074219 -22.636719 C 10.722656 -22.636719 12.601562 -22.148438 14.394531 -21.316406 C 14.804688 -21.121094 15.097656 -21.265625 15.292969 -21.625 L 15.945312 -23.207031 C 16.125 -23.585938 16.027344 -23.910156 15.621094 -24.105469 C 13.398438 -25.054688 11.082031 -25.59375 9.089844 -25.59375 C 5.191406 -25.59375 1.761719 -23.664062 1.761719 -19.292969 C 1.761719 -15.226562 4.878906 -13.335938 8.015625 -11.570312 C 11.210938 -9.792969 13.9375 -8.4375 13.9375 -5.859375 C 13.9375 -3.640625 12.144531 -2.367188 9.285156 -2.367188 C 7.65625 -2.367188 5.664062 -2.726562 3.050781 -4.128906 C 2.644531 -4.339844 2.316406 -4.242188 2.121094 -3.867188 L 1.421875 -2.269531 C 1.222656 -1.894531 1.304688 -1.566406 1.714844 -1.355469 C 4.847656 0.0976562 7.148438 0.523438 9.5 0.523438 Z M 9.5 0.523438 "/></g></g></g><g fill="#ffffff" fill-opacity="1"><g transform="translate(256.839593, 302.176644)"><g><path d="M 5.011719 0 C 5.433594 0 5.679688 -0.226562 5.679688 -0.667969 L 5.679688 -7.980469 L 17.921875 -7.980469 L 17.921875 -0.667969 C 17.921875 -0.226562 18.148438 0 18.589844 0 L 20.449219 0 C 20.890625 0 21.121094 -0.226562 21.121094 -0.667969 L 21.121094 -24.402344 C 21.121094 -24.839844 20.890625 -25.070312 20.449219 -25.070312 L 18.589844 -25.070312 C 18.148438 -25.070312 17.921875 -24.839844 17.921875 -24.402344 L 17.921875 -10.96875 L 5.679688 -10.96875 L 5.679688 -24.402344 C 5.679688 -24.839844 5.433594 -25.070312 5.011719 -25.070312 L 3.148438 -25.070312 C 2.710938 -25.070312 2.480469 -24.839844 2.480469 -24.402344 L 2.480469 -0.667969 C 2.480469 -0.226562 2.710938 0 3.148438 0 Z M 5.011719 0 "/></g></g></g><g fill="#ffffff" fill-opacity="1"><g transform="translate(280.420636, 302.176644)"><g><path d="M 15.277344 0 C 15.699219 0 15.945312 -0.226562 15.945312 -0.667969 L 15.945312 -2.316406 C 15.945312 -2.742188 15.699219 -2.988281 15.277344 -2.988281 L 5.679688 -2.988281 L 5.679688 -8.015625 L 13.972656 -8.015625 C 14.394531 -8.015625 14.640625 -8.242188 14.640625 -8.683594 L 14.640625 -10.265625 C 14.640625 -10.707031 14.394531 -10.933594 13.972656 -10.933594 L 5.679688 -10.933594 L 5.679688 -22.082031 L 15.277344 -22.082031 C 15.699219 -22.082031 15.945312 -22.328125 15.945312 -22.753906 L 15.945312 -24.402344 C 15.945312 -24.839844 15.699219 -25.070312 15.277344 -25.070312 L 3.148438 -25.070312 C 2.710938 -25.070312 2.480469 -24.839844 2.480469 -24.402344 L 2.480469 -0.667969 C 2.480469 -0.226562 2.710938 0 3.148438 0 Z M 15.277344 0 "/></g></g></g><g fill="#ffffff" fill-opacity="1"><g transform="translate(297.657969, 302.176644)"><g><path d="M 15.226562 -8.765625 C 18.132812 -10.039062 19.585938 -12.632812 19.585938 -16.484375 C 19.585938 -22.050781 16.550781 -25.070312 9.761719 -25.070312 L 3.148438 -25.070312 C 2.710938 -25.070312 2.480469 -24.839844 2.480469 -24.402344 L 2.480469 -0.667969 C 2.480469 -0.226562 2.710938 0 3.148438 0 L 4.976562 0 C 5.417969 0 5.648438 -0.226562 5.648438 -0.667969 L 5.648438 -7.835938 L 9.972656 -7.835938 C 10.722656 -7.835938 11.425781 -7.867188 12.09375 -7.949219 L 15.847656 -0.507812 C 16.011719 -0.164062 16.257812 0 16.613281 0 L 18.800781 0 C 19.308594 0 19.535156 -0.328125 19.292969 -0.800781 Z M 5.648438 -10.820312 L 5.648438 -22.082031 L 9.5625 -22.082031 C 11.652344 -22.082031 16.46875 -22.035156 16.46875 -16.46875 C 16.46875 -10.871094 11.589844 -10.820312 9.5625 -10.820312 Z M 5.648438 -10.820312 "/></g></g></g><g fill="#ffffff" fill-opacity="1"><g transform="translate(318.939631, 302.176644)"><g><path d="M 9.5 0.523438 C 13.660156 0.523438 17.152344 -1.664062 17.152344 -6.039062 C 17.152344 -10.265625 13.496094 -12.191406 10.21875 -14.003906 C 7.441406 -15.523438 4.976562 -16.894531 4.976562 -19.519531 C 4.976562 -21.738281 6.871094 -22.636719 9.074219 -22.636719 C 10.722656 -22.636719 12.601562 -22.148438 14.394531 -21.316406 C 14.804688 -21.121094 15.097656 -21.265625 15.292969 -21.625 L 15.945312 -23.207031 C 16.125 -23.585938 16.027344 -23.910156 15.621094 -24.105469 C 13.398438 -25.054688 11.082031 -25.59375 9.089844 -25.59375 C 5.191406 -25.59375 1.761719 -23.664062 1.761719 -19.292969 C 1.761719 -15.226562 4.878906 -13.335938 8.015625 -11.570312 C 11.210938 -9.792969 13.9375 -8.4375 13.9375 -5.859375 C 13.9375 -3.640625 12.144531 -2.367188 9.285156 -2.367188 C 7.65625 -2.367188 5.664062 -2.726562 3.050781 -4.128906 C 2.644531 -4.339844 2.316406 -4.242188 2.121094 -3.867188 L 1.421875 -2.269531 C 1.222656 -1.894531 1.304688 -1.566406 1.714844 -1.355469 C 4.847656 0.0976562 7.148438 0.523438 9.5 0.523438 Z M 9.5 0.523438 "/></g></g></g><path fill="#ffffff" d="M 189.308594 247.929688 L 207.3125 247.929688 L 207.3125 253.929688 L 189.308594 253.929688 M 213.3125 247.929688 L 231.3125 247.929688 L 231.3125 253.929688 L 213.3125 253.929688 M 237.316406 247.929688 L 255.316406 247.929688 L 255.316406 253.929688 L 237.316406 253.929688 M 261.316406 247.929688 L 279.320312 247.929688 L 279.320312 253.929688 L 261.316406 253.929688 M 285.320312 247.929688 L 303.320312 247.929688 L 303.320312 253.929688 L 285.320312 253.929688 " fill-opacity="1" fill-rule="nonzero"/><path fill="#ffffff" d="M 63.03125 117.449219 L 81.070312 117.449219 L 81.070312 123.449219 L 63.03125 123.449219 M 87.082031 117.449219 L 105.121094 117.449219 L 105.121094 123.449219 L 87.082031 123.449219 M 111.132812 117.449219 L 129.167969 117.449219 L 129.167969 123.449219 L 111.132812 123.449219 M 135.183594 117.449219 L 153.21875 117.449219 L 153.21875 123.449219 L 135.183594 123.449219 M 159.230469 117.449219 L 177.269531 117.449219 L 177.269531 123.449219 L 159.230469 123.449219 M 183.28125 117.449219 L 186.785156 117.449219 L 186.785156 123.449219 L 183.28125 123.449219 " fill-opacity="1" fill-rule="nonzero"/></svg>