<svg xmlns="http://www.w3.org/2000/svg" xmlns:xlink="http://www.w3.org/1999/xlink" width="500" zoomAndPan="magnify" viewBox="0 0 375 374.999991" height="500" preserveAspectRatio="xMidYMid meet" version="1.0"><defs><g/><clipPath id="665ee5d3b8"><path d="M 20.265625 16.648438 L 359 16.648438 L 359 355 L 20.265625 355 Z M 20.265625 16.648438 " clip-rule="nonzero"/></clipPath><clipPath id="ad5f1daa80"><path d="M 20.265625 16.648438 L 281.058594 16.648438 C 323.695312 16.648438 358.351562 51.304688 358.351562 93.941406 L 358.351562 354.734375 L 20.265625 354.734375 Z M 20.265625 16.648438 " clip-rule="nonzero"/></clipPath></defs><g clip-path="url(#665ee5d3b8)"><g clip-path="url(#ad5f1daa80)"><path fill="#0a2740" d="M 20.265625 16.648438 L 359.007812 16.648438 L 359.007812 355.386719 L 20.265625 355.386719 Z M 20.265625 16.648438 " fill-opacity="1" fill-rule="nonzero"/></g></g><g fill="#ffffff" fill-opacity="1"><g transform="translate(41.425297, 270.362488)"><g><path d="M -7.40625 49.484375 C 0.5 48.304688 6.96875 45.835938 12 42.078125 C 17.039062 38.328125 20.941406 31.804688 23.703125 22.515625 C 26.472656 13.234375 27.859375 0.296875 27.859375 -16.296875 L 27.859375 -178.40625 C 27.859375 -185.914062 27.3125 -191.347656 26.21875 -194.703125 C 25.132812 -198.066406 23.207031 -200.335938 20.4375 -201.515625 C 17.675781 -202.703125 13.132812 -203.492188 6.8125 -203.890625 L 6.8125 -209.828125 C 17.476562 -209.234375 33.976562 -208.9375 56.3125 -208.9375 C 79.425781 -208.9375 97.007812 -209.234375 109.0625 -209.828125 L 109.0625 -203.890625 C 102.738281 -203.492188 98.144531 -202.703125 95.28125 -201.515625 C 92.414062 -200.335938 90.488281 -198.066406 89.5 -194.703125 C 88.507812 -191.347656 88.015625 -185.914062 88.015625 -178.40625 L 88.015625 -45.34375 C 88.015625 -33.882812 87.664062 -23.804688 86.96875 -15.109375 C 86.28125 -6.421875 84.953125 1.082031 82.984375 7.40625 C 78.242188 21.832031 68.265625 33.488281 53.046875 42.375 C 37.835938 51.269531 17.6875 55.71875 -7.40625 55.71875 Z M -7.40625 49.484375 "/></g></g></g><g fill="#ffffff" fill-opacity="1"><g transform="translate(157.003519, 270.362488)"><g><path d="M 173.96875 -209.828125 C 172.582031 -191.253906 171.890625 -174.65625 171.890625 -160.03125 C 171.890625 -150.945312 172.1875 -143.835938 172.78125 -138.703125 L 165.96875 -138.703125 C 161.21875 -161.617188 153.953125 -178.0625 144.171875 -188.03125 C 134.398438 -198.007812 123.488281 -203 111.4375 -203 L 107.578125 -203 C 102.242188 -203 98.34375 -202.554688 95.875 -201.671875 C 93.40625 -200.785156 91.722656 -199.109375 90.828125 -196.640625 C 89.941406 -194.171875 89.5 -190.066406 89.5 -184.328125 L 89.5 -108.46875 L 92.46875 -108.46875 C 102.738281 -108.46875 111.53125 -112.515625 118.84375 -120.609375 C 126.15625 -128.710938 130.796875 -137.707031 132.765625 -147.59375 L 139.578125 -147.59375 C 138.992188 -139.289062 138.703125 -130.003906 138.703125 -119.734375 L 138.703125 -105.5 C 138.703125 -95.425781 139.289062 -81.398438 140.46875 -63.421875 L 133.65625 -63.421875 C 131.875 -74.679688 127.28125 -84.015625 119.875 -91.421875 C 112.46875 -98.835938 103.332031 -102.546875 92.46875 -102.546875 L 89.5 -102.546875 L 89.5 -34.375 C 89.5 -26.082031 90.335938 -20.054688 92.015625 -16.296875 C 93.691406 -12.546875 96.753906 -10.023438 101.203125 -8.734375 C 105.648438 -7.453125 112.710938 -6.8125 122.390625 -6.8125 L 122.390625 0 C 95.722656 -0.59375 75.375 -0.890625 61.34375 -0.890625 C 52.0625 -0.890625 39.117188 -0.691406 22.515625 -0.296875 L 8.296875 0 L 8.296875 -5.921875 C 14.617188 -6.316406 19.210938 -7.109375 22.078125 -8.296875 C 24.941406 -9.484375 26.867188 -11.753906 27.859375 -15.109375 C 28.847656 -18.472656 29.34375 -23.910156 29.34375 -31.421875 L 29.34375 -178.40625 C 29.34375 -185.914062 28.796875 -191.347656 27.703125 -194.703125 C 26.617188 -198.066406 24.691406 -200.335938 21.921875 -201.515625 C 19.160156 -202.703125 14.617188 -203.492188 8.296875 -203.890625 L 8.296875 -209.828125 C 31.210938 -209.234375 65.789062 -208.9375 112.03125 -208.9375 C 141.070312 -208.9375 161.71875 -209.234375 173.96875 -209.828125 Z M 173.96875 -209.828125 "/></g></g></g><path fill="#ffffff" d="M 187.558594 334.5 L 205.554688 334.859375 L 205.433594 340.859375 L 187.441406 340.5 M 211.550781 334.980469 L 229.546875 335.339844 L 229.425781 341.339844 L 211.429688 340.980469 M 235.542969 335.460938 L 253.535156 335.820312 L 253.417969 341.820312 L 235.421875 341.460938 M 259.535156 335.941406 L 277.527344 336.300781 L 277.40625 342.296875 L 259.414062 341.9375 M 283.527344 336.421875 L 301.519531 336.78125 L 301.398438 342.777344 L 283.40625 342.417969 M 307.515625 336.898438 L 325.511719 337.257812 L 325.390625 343.257812 L 307.398438 342.898438 M 331.507812 337.378906 L 337.535156 337.5 L 337.417969 343.5 L 331.390625 343.378906 " fill-opacity="1" fill-rule="nonzero"/><path fill="#ffffff" d="M 37.558594 31.5 L 55.554688 31.859375 L 55.433594 37.859375 L 37.441406 37.5 M 61.550781 31.980469 L 79.546875 32.339844 L 79.425781 38.339844 L 61.429688 37.980469 M 85.542969 32.460938 L 103.535156 32.820312 L 103.417969 38.820312 L 85.421875 38.460938 M 109.535156 32.941406 L 127.527344 33.300781 L 127.40625 39.296875 L 109.414062 38.9375 M 133.527344 33.421875 L 151.519531 33.78125 L 151.398438 39.777344 L 133.40625 39.417969 M 157.515625 33.898438 L 175.511719 34.257812 L 175.390625 40.257812 L 157.398438 39.898438 M 181.507812 34.378906 L 187.535156 34.5 L 187.417969 40.5 L 181.390625 40.378906 " fill-opacity="1" fill-rule="nonzero"/></svg>