<svg xmlns="http://www.w3.org/2000/svg" xmlns:xlink="http://www.w3.org/1999/xlink" width="500" zoomAndPan="magnify" viewBox="0 0 375 374.999991" height="500" preserveAspectRatio="xMidYMid meet" version="1.0"><defs><g/><clipPath id="496b057ccc"><path d="M 20.265625 16.648438 L 359 16.648438 L 359 355 L 20.265625 355 Z M 20.265625 16.648438 " clip-rule="nonzero"/></clipPath><clipPath id="9097d917d3"><path d="M 20.265625 16.648438 L 281.058594 16.648438 C 323.695312 16.648438 358.351562 51.304688 358.351562 93.941406 L 358.351562 354.734375 L 20.265625 354.734375 Z M 20.265625 16.648438 " clip-rule="nonzero"/></clipPath></defs><g clip-path="url(#496b057ccc)"><g clip-path="url(#9097d917d3)"><path fill="#0a2740" d="M 20.265625 16.648438 L 359.007812 16.648438 L 359.007812 355.386719 L 20.265625 355.386719 Z M 20.265625 16.648438 " fill-opacity="1" fill-rule="nonzero"/></g></g><g fill="#ffffff" fill-opacity="1"><g transform="translate(126.798551, 270.525733)"><g><path d="M -7.78125 51.984375 C 0.519531 50.734375 7.316406 48.132812 12.609375 44.1875 C 17.898438 40.25 22 33.40625 24.90625 23.65625 C 27.8125 13.90625 29.265625 0.3125 29.265625 -17.125 L 29.265625 -187.375 C 29.265625 -195.257812 28.691406 -200.96875 27.546875 -204.5 C 26.398438 -208.03125 24.375 -210.414062 21.46875 -211.65625 C 18.570312 -212.90625 13.800781 -213.738281 7.15625 -214.15625 L 7.15625 -220.375 C 18.363281 -219.75 35.691406 -219.4375 59.140625 -219.4375 C 83.421875 -219.4375 101.890625 -219.75 114.546875 -220.375 L 114.546875 -214.15625 C 107.898438 -213.738281 103.070312 -212.90625 100.0625 -211.65625 C 97.0625 -210.414062 95.039062 -208.03125 94 -204.5 C 92.96875 -200.96875 92.453125 -195.257812 92.453125 -187.375 L 92.453125 -47.625 C 92.453125 -35.582031 92.085938 -24.992188 91.359375 -15.859375 C 90.628906 -6.734375 89.226562 1.144531 87.15625 7.78125 C 82.175781 22.925781 71.695312 35.164062 55.71875 44.5 C 39.738281 53.84375 18.570312 58.515625 -7.78125 58.515625 Z M -7.78125 51.984375 "/></g></g></g><path fill="#ffffff" d="M 187.558594 334.5 L 205.554688 334.859375 L 205.433594 340.859375 L 187.441406 340.5 M 211.550781 334.980469 L 229.546875 335.339844 L 229.425781 341.339844 L 211.429688 340.980469 M 235.542969 335.460938 L 253.535156 335.820312 L 253.417969 341.820312 L 235.421875 341.460938 M 259.535156 335.941406 L 277.527344 336.300781 L 277.40625 342.296875 L 259.414062 341.9375 M 283.527344 336.421875 L 301.519531 336.78125 L 301.398438 342.777344 L 283.40625 342.417969 M 307.515625 336.898438 L 325.511719 337.257812 L 325.390625 343.257812 L 307.398438 342.898438 M 331.507812 337.378906 L 337.535156 337.5 L 337.417969 343.5 L 331.390625 343.378906 " fill-opacity="1" fill-rule="nonzero"/><path fill="#ffffff" d="M 37.558594 31.5 L 55.554688 31.859375 L 55.433594 37.859375 L 37.441406 37.5 M 61.550781 31.980469 L 79.546875 32.339844 L 79.425781 38.339844 L 61.429688 37.980469 M 85.542969 32.460938 L 103.535156 32.820312 L 103.417969 38.820312 L 85.421875 38.460938 M 109.535156 32.941406 L 127.527344 33.300781 L 127.40625 39.296875 L 109.414062 38.9375 M 133.527344 33.421875 L 151.519531 33.78125 L 151.398438 39.777344 L 133.40625 39.417969 M 157.515625 33.898438 L 175.511719 34.257812 L 175.390625 40.257812 L 157.398438 39.898438 M 181.507812 34.378906 L 187.535156 34.5 L 187.417969 40.5 L 181.390625 40.378906 " fill-opacity="1" fill-rule="nonzero"/></svg>