<svg xmlns="http://www.w3.org/2000/svg" xmlns:xlink="http://www.w3.org/1999/xlink" width="4200" zoomAndPan="magnify" viewBox="0 0 3150 3599.999971" height="4800" preserveAspectRatio="xMidYMid meet" version="1.0"><path fill="#063350" d="M 2681.058594 2408.636719 C 2694.609375 2344.019531 2702.808594 2277.507812 2705.222656 2209.523438 C 2710.582031 2205.320312 2715.941406 2201.011719 2721.195312 2196.808594 C 3205.269531 1807.199219 3345.226562 1354.75 2795.0625 1148.910156 C 2979.78125 1358.429688 2911.902344 1603.144531 2682.421875 1837.984375 C 2676.011719 1844.5 2669.5 1851.011719 2662.878906 1857.527344 C 2257.503906 2255.757812 1392.222656 2621.519531 515.070312 2733.105469 C 509.1875 2733.839844 503.300781 2734.578125 497.3125 2735.3125 C 330.875 2755.800781 164.019531 2767.148438 0 2767.675781 C 191.757812 2824.835938 388.457031 2856.777344 585.15625 2867.496094 C 590.40625 2867.285156 595.554688 2867.074219 600.808594 2866.863281 C 602.703125 2866.757812 604.59375 2866.757812 606.484375 2866.65625 C 741.398438 3047.378906 927.589844 3187.652344 1143.515625 3265.722656 C 1050.523438 3158.339844 972.140625 3014.175781 914.769531 2844.800781 C 956.800781 2840.597656 998.933594 2835.972656 1040.964844 2830.929688 C 1131.746094 3091.617188 1274.753906 3277.386719 1440.664062 3330.554688 C 1452.117188 3331.5 1463.464844 3332.339844 1475.023438 3332.867188 L 1475.023438 2763.15625 C 1517.472656 2755.066406 1559.921875 2746.660156 1602.476562 2737.730469 L 1602.476562 3332.867188 C 1613.929688 3332.234375 1625.382812 3331.5 1636.835938 3330.554688 C 1841.730469 3264.882812 2011.84375 2997.050781 2091.488281 2635.492188 C 1993.457031 2660.605469 1890.0625 2681.726562 1781.417969 2698.328125 C 1775.53125 2699.273438 1769.542969 2700.113281 1763.554688 2700.953125 C 1937.871094 2643.371094 2102.941406 2573.605469 2254.351562 2495.847656 L 2659.203125 2495.847656 C 2667.605469 2467.269531 2674.855469 2438.164062 2681.054688 2408.742188 Z M 2681.058594 2408.636719 " fill-opacity="1" fill-rule="evenodd"/><path fill="#063350" d="M 1606.996094 1209.855469 L 1477.4375 1390.160156 C 1680.335938 1393.523438 1829.75 1427.777344 1605.207031 1677.535156 C 2005.960938 1324.386719 1917.699219 1212.375 1607.101562 1209.855469 Z M 1606.996094 1209.855469 " fill-opacity="1" fill-rule="evenodd"/><path fill="#063350" d="M 1430.472656 605.050781 C 1430.472656 690.160156 1499.398438 759.089844 1584.507812 759.089844 C 1669.511719 759.089844 1738.546875 690.160156 1738.546875 605.050781 C 1738.546875 520.046875 1669.511719 451.117188 1584.507812 451.117188 C 1499.503906 451.117188 1430.472656 520.046875 1430.472656 605.050781 Z M 1430.472656 605.050781 " fill-opacity="1" fill-rule="evenodd"/><path fill="#063350" d="M 1319.722656 959.675781 C 1216.121094 1383.332031 1011.332031 1753.503906 737.40625 2087.007812 C 1121.765625 1819.808594 1437.195312 1470.855469 1661.316406 1013.367188 C 1904.5625 1047.304688 2156.632812 1044.679688 2375.082031 817.40625 C 1864.214844 1168.035156 1109.15625 436.722656 865.070312 1091.648438 C 984.75 953.371094 1143.09375 939.816406 1319.617188 959.78125 Z M 1319.722656 959.675781 " fill-opacity="1" fill-rule="evenodd"/><path fill="#063350" d="M 2613.074219 267.132812 L 2682.949219 518.996094 L 2923.355469 416.550781 L 2769.949219 628.167969 L 2999.953125 752.257812 L 2738.847656 764.238281 L 2785.289062 1021.457031 L 2613.074219 824.863281 L 2440.964844 1021.457031 L 2487.300781 764.238281 L 2226.191406 752.257812 L 2456.304688 628.167969 L 2302.898438 416.550781 L 2543.304688 518.996094 Z M 2613.074219 267.132812 " fill-opacity="1" fill-rule="evenodd"/><path fill="#004aad" d="M 950.074219 2600.398438 L 950.074219 2233.691406 L 621.195312 2233.691406 L 621.195312 2662.074219 C 635.695312 2659.871094 650.195312 2657.558594 664.695312 2655.246094 C 759.785156 2639.90625 855.089844 2621.519531 950.074219 2600.398438 Z M 2127.214844 1538.3125 L 2127.214844 2170.4375 C 2241.640625 2108.234375 2354.066406 2038.464844 2456.09375 1961.339844 L 2456.09375 1538.316406 L 2127.214844 1538.316406 Z M 1625.171875 1695.925781 L 1625.171875 2398.761719 C 1688.007812 2374.910156 1750.105469 2349.691406 1811.257812 2323.320312 C 1858.121094 2303.144531 1905.824219 2281.5 1954.054688 2258.59375 L 1954.054688 1696.03125 L 1625.171875 1696.03125 Z M 1123.234375 1988.765625 L 1123.234375 2558.578125 C 1233.984375 2529.789062 1343.890625 2497.109375 1452.117188 2460.648438 L 1452.117188 1988.765625 Z M 1123.234375 1988.765625 " fill-opacity="1" fill-rule="evenodd"/><path fill="#063350" d="M 2221.675781 2626.980469 C 2166.511719 2891.136719 2064.484375 3114.734375 1933.878906 3265.722656 L 1938.710938 3263.9375 C 2240.378906 3153.292969 2483.414062 2921.292969 2608.660156 2626.980469 Z M 2221.675781 2626.980469 " fill-opacity="1" fill-rule="evenodd"/></svg>